<svg xmlns="http://www.w3.org/2000/svg" viewBox="0 0 658 617"><defs><style>.cls-4{fill:#f8fafd}.cls-6{fill:#fbfcfd}.cls-8{fill:#f8fbfd}.cls-12{fill:#258ef9}</style></defs><g id="Layer_2" data-name="Layer 2"><g id="Layer_1-2" data-name="Layer 1"><path d="M108 0h550v617H0V131l13.16-16zm154.39 454.52c-4.14-.46-7.26-.89-10.4-1.12-16.45-1.21-29.94 8.35-32.47 24.53a63.57 63.57 0 00.89 24.16C225 521 244.75 525.87 258.62 512c1.31-1.31 2.55-2.68 4.39-4.61.36 4.42.63 7.7.89 10.94h9.7v-90.22h-11.21zm-102.6-44.44c0-11.44.76-22.49-.23-33.38-.92-10.11 4.68-15.48 11.74-20.12 8.25-5.44 17.12-1.26 17.73 8.56.71 11.46.41 23 .53 34.46v10.52H201c0-12.39.09-24.52 0-36.64a84.86 84.86 0 00-1.06-13.9 17.29 17.29 0 00-14.66-14.45c-7.78-1.2-14.91.35-20.9 5.8-1.27 1.15-2.57 2.26-4.72 4.13V320H148.5v90.05zm-36.55-174.87c-1.93 16.27-3.81 32-5.68 47.77a7.77 7.77 0 01-2.65-3.84c-3-8.12-6-16.2-8.83-24.38-1-3.06-2.31-4.56-5.9-4.55s-4.42 1.89-5.26 4.61c-1.61 5.24-3.41 10.42-5.17 15.62-1.57 4.63-3.19 9.24-4.8 13.86l-.79-.2q-3.16-24.37-6.28-48.77H67L76.27 297a50.94 50.94 0 016.81.05c4.7.67 7-1 8.39-5.78 2.42-8.4 5.65-16.57 8.81-25.61 2.68 7.54 5 14.21 7.44 20.87 3.92 10.91 3.93 10.91 15.39 10.44a15.33 15.33 0 001.86-.34c3.06-20.34 6.12-40.76 9.23-61.43zM350 490.1c0-4.15.24-7.63 0-11.06-.91-11.11-5.52-20-16.49-24s-21.89-3.09-30.73 5.36c-11.34 10.86-12.24 24.49-8.89 38.88 2.27 9.77 8.27 16.1 17.92 18.9 9.37 2.71 18.8 1.86 28.2.17 7.85-1.41 8.31-2.28 6.2-9.45-8.42.4-16.71 1.44-24.94 1-10.83-.53-17.21-8.5-16.79-19.81zm20.1-170.22v90.22h11.17V376c8.92 10.13 17.57 18.77 24.77 28.49 5.72 7.73 12.64 5.51 20.91 5.73l-31.32-33.77 28.09-30.56a43.44 43.44 0 01-5.91 0c-5.23-.7-9.05 1.11-12.58 5.09-5.3 6-11.2 11.41-16.85 17.08-2.15 2.16-4.32 4.3-7.37 7.34v-55.52zm-167-46.36c0-3.57.08-6.7 0-9.81-.42-14.08-8.27-24.22-20.46-26.53-15.06-2.86-27.68 3.3-33.59 16.22-4.14 9-4 18.44-2.18 27.87 2.56 13.1 11.82 21.21 25 21.63a153.58 153.58 0 0020.89-1c7.94-.84 8.61-2.22 6.43-10.35a35.94 35.94 0 01-5.37 1c-7.6.22-15.34 1.24-22.76.15-9.18-1.35-14.38-10-12.64-19.19h44.69zm2 207.19a28.23 28.23 0 00-11.83-22.64c-17.79-12.59-43.55-2.7-48.22 18.54a55.38 55.38 0 00-1.06 12.86c.47 23.11 19.64 36.21 41.45 28.46 12.56-4.42 19.72-16.22 19.72-37.22zm90.08-134.59v64h11c0-11.53.67-22.86-.2-34.06-.79-10.17 5.16-15.41 12.27-19.82 8.25-5.12 16.94-.41 17.53 9.32.49 8 .21 16 .23 24V410h10.95c0-16.22.33-32-.14-47.8-.22-7.41-3.94-13.57-11.48-16-8-2.59-15.79-2-22.71 3.36-2.2 1.69-4.25 3.57-7 5.87-.36-3.51-.66-6.36-1-9.25zM87 355.25v17.69c0 5.83-.13 11.66.08 17.47.45 12.64 7.33 19.81 19.79 20.56a97.54 97.54 0 0013.46-.16c7.59-.6 7.83-1 7.41-8.78a6.6 6.6 0 00-.46-1.58c-5.06.49-9.84 1.36-14.61 1.34-9.58 0-14.09-4.5-14.35-14.06-.23-8.64-.06-17.3-.07-26v-6.76h29.19v-9.16H98.1v-20.47l-11.31 2.9v17.9H69.18v9.11zm38.59 151.11c-12.08 3.89-23.88 7.19-33.83-3.36-6.13-6.51-6.93-20.66-1.8-29.28 9-15.05 22.36-11.56 35.93-7.33 0-2.69.39-4.94-.12-7-.4-1.56-1.68-3.7-3-4.1-8.43-2.47-17-3.17-25.59-.57-16.41 4.95-25.24 21.45-21.64 40.4 2.58 13.59 10.6 22 23.51 23.64a70.85 70.85 0 0017.4-.1c9.84-1.16 10.06-1.82 9.14-12.3zM222.67 410h51.92v-9h-19.22v-54.76H225v9h18.53v46h-20.9zM358 544.68h72.73v-8.5h-72.61c-.07 1.47-.14 2.61-.16 3.75-.03 1.48.04 2.95.04 4.75zM256.86 327.5a8.93 8.93 0 00-17.85.22 8.64 8.64 0 009 8.57 8.75 8.75 0 008.85-8.79z" fill="#238df9"/><path d="M262.39 454.52v-26.41h11.21v90.25h-9.7c-.26-3.24-.53-6.52-.89-10.94-1.84 1.93-3.08 3.3-4.39 4.61-13.87 13.84-33.65 9-38.21-9.94a63.57 63.57 0 01-.89-24.16c2.53-16.18 16-25.74 32.47-24.53 3.14.23 6.26.66 10.4 1.12zm0 26c0-4 .13-8-.07-12-.06-1.29-.6-3.1-1.55-3.73-8.31-5.55-23.82-1.57-27.81 7.5-4.49 10.18-4.25 20.78.08 31 2.89 6.79 10 9 16.2 5.08 7.85-5 14.82-10.94 13.2-21.89a44.13 44.13 0 01-.09-6.01z" fill="#f6f9fd"/><path d="M159.79 410.08H148.5V320h11.08v35c2.15-1.87 3.45-3 4.72-4.13 6-5.45 13.12-7 20.9-5.8a17.29 17.29 0 0114.66 14.45 84.86 84.86 0 011.06 13.9c.13 12.12 0 24.25 0 36.64h-11.35v-10.52c-.12-11.49.18-23-.53-34.46-.61-9.82-9.48-14-17.73-8.56-7.06 4.64-12.66 10-11.74 20.12.98 10.95.22 22 .22 33.44z" fill="#f5f9fd"/><path class="cls-4" d="M123.24 235.21h11c-3.11 20.67-6.17 41.09-9.23 61.43a15.33 15.33 0 01-1.86.34c-11.46.47-11.47.47-15.39-10.44-2.39-6.66-4.76-13.33-7.44-20.87-3.16 9-6.39 17.21-8.81 25.61-1.37 4.74-3.69 6.45-8.39 5.78a50.94 50.94 0 00-6.81-.05L67 235.33h10.88q3.12 24.39 6.28 48.77l.79.2c1.61-4.62 3.23-9.23 4.8-13.86 1.76-5.2 3.56-10.38 5.17-15.62.84-2.72 1.67-4.59 5.26-4.61s4.87 1.49 5.9 4.55c2.78 8.18 5.85 16.26 8.83 24.38a7.77 7.77 0 002.65 3.84c1.87-15.75 3.75-31.5 5.68-47.77z"/><path d="M350 490.1h-45.57c-.42 11.31 6 19.28 16.79 19.81 8.23.41 16.52-.63 24.94-1 2.11 7.17 1.65 8-6.2 9.45-9.4 1.69-18.83 2.54-28.2-.17-9.65-2.8-15.65-9.13-17.92-18.9-3.35-14.39-2.45-28 8.89-38.88 8.84-8.45 19.65-9.39 30.73-5.36S349 467.93 350 479c.23 3.47 0 7 0 11.1zm-12.28-9.1c1.44-10.25-4.67-18.17-14.36-18.94-10.84-.86-18.77 7.08-18.71 18.94z" fill="#f7fafd"/><path class="cls-6" d="M370.1 319.88H381v55.52c3.05-3 5.22-5.18 7.37-7.34C394 362.39 399.93 357 405.23 351c3.53-4 7.35-5.79 12.58-5.09a43.44 43.44 0 005.91 0l-28.09 30.56L427 410.26c-8.27-.22-15.19 2-20.91-5.73-7.2-9.72-15.85-18.36-24.77-28.49v34.06H370.1z"/><path d="M203.14 273.52h-44.69c-1.74 9.14 3.46 17.84 12.64 19.19 7.42 1.09 15.16.07 22.76-.15a35.94 35.94 0 005.37-1c2.18 8.13 1.51 9.51-6.43 10.35a153.58 153.58 0 01-20.89 1c-13.18-.42-22.44-8.53-25-21.63-1.84-9.43-2-18.82 2.18-27.87 5.91-12.92 18.53-19.08 33.59-16.22 12.19 2.31 20 12.45 20.46 26.53.09 3.1.01 6.28.01 9.8zm-11.79-8.87c1.16-11.06-5.55-18.9-16.13-19.16-10-.24-17.71 8.3-17.08 19.16z" fill="#f9fbfd"/><path class="cls-4" d="M205.16 480.71c0 21-7.21 32.8-19.66 37.22-21.81 7.75-41-5.35-41.45-28.46a55.38 55.38 0 011.06-12.86c4.67-21.24 30.43-31.13 48.22-18.54a28.23 28.23 0 0111.83 22.64zM194 486.87c-.66-4-.92-7.52-1.86-10.85-2.49-8.83-8.43-13.26-17.47-13.44-8.3-.18-14.83 4.49-17.48 12.87a36.87 36.87 0 00-.05 22.1c2.49 8.21 8.45 12.46 17.06 12.65 8.18.18 14.51-3.87 17.24-11.67 1.38-3.87 1.83-8.05 2.56-11.66zm101.24-140.75h9.56c.31 2.89.61 5.74 1 9.25 2.72-2.3 4.77-4.18 7-5.87 6.92-5.33 14.72-5.95 22.71-3.36 7.54 2.45 11.26 8.61 11.48 16 .47 15.78.14 31.58.14 47.8h-11.01V389.5c0-8 .26-16-.23-24-.59-9.73-9.28-14.44-17.53-9.32-7.11 4.41-13.06 9.65-12.27 19.82.87 11.2.2 22.53.2 34.06h-11z"/><path class="cls-6" d="M87 355.25H69.18v-9.11h17.61v-17.9l11.31-2.9v20.51h29.34V355H98.25v6.76c0 8.66-.16 17.32.07 26 .26 9.56 4.77 14 14.35 14.06 4.77 0 9.55-.85 14.61-1.34a6.6 6.6 0 01.46 1.58c.42 7.74.18 8.18-7.41 8.78a97.54 97.54 0 01-13.46.16c-12.46-.75-19.34-7.92-19.79-20.56-.21-5.81-.07-11.64-.08-17.47v-17.72z"/><path class="cls-8" d="M125.59 506.36c.92 10.48.7 11.14-9.14 12.34a70.85 70.85 0 01-17.4.1c-12.91-1.63-20.93-10-23.51-23.64-3.6-19 5.23-35.45 21.64-40.4 8.58-2.6 17.16-1.9 25.59.57 1.32.4 2.6 2.54 3 4.1.51 2 .12 4.27.12 7-13.57-4.23-27-7.72-35.93 7.33-5.13 8.62-4.33 22.77 1.8 29.28 9.95 10.51 21.75 7.21 33.83 3.32z"/><path d="M222.67 410v-8.76h20.9v-46H225v-9h30.33V401h19.22v9z" fill="#fcfcfd"/><path d="M358 544.68v-4.75c0-1.14.09-2.28.16-3.75h72.56v8.5z" fill="#fdfdfd"/><path class="cls-8" d="M256.86 327.5a8.75 8.75 0 01-8.84 8.79 8.68 8.68 0 11-.21-17.36 8.79 8.79 0 019.05 8.57z"/><path d="M262.36 480.47a42.57 42.57 0 000 6c1.62 10.95-5.35 16.88-13.2 21.89-6.21 4-13.31 1.71-16.2-5.08-4.33-10.2-4.57-20.8-.08-31 4-9.07 19.5-13 27.81-7.5.95.63 1.49 2.44 1.55 3.73.24 3.98.11 7.97.12 11.96z" fill="#258df9"/><path class="cls-12" d="M337.72 481h-33.07c-.06-11.86 7.87-19.8 18.71-18.94 9.69.76 15.8 8.68 14.36 18.94z"/><path d="M191.35 264.65h-33.21c-.63-10.86 7.06-19.4 17.08-19.16 10.58.26 17.29 8.1 16.13 19.16z" fill="#278ff9"/><path class="cls-12" d="M194 486.87c-.76 3.61-1.21 7.79-2.56 11.66-2.73 7.8-9.06 11.85-17.24 11.67-8.61-.19-14.57-4.44-17.06-12.65a36.87 36.87 0 01.05-22.1c2.65-8.38 9.18-13.05 17.48-12.87 9 .18 15 4.61 17.47 13.44.97 3.33 1.23 6.85 1.86 10.85z"/></g></g></svg>